<svg preserveAspectRatio="none" width="100%" height="100%" overflow="visible" style="display: block;" viewBox="0 0 26 26" fill="none" xmlns="http://www.w3.org/2000/svg">
<g id="Group">
<path id="Vector" d="M25 7.66667V18.3333C25 20.1014 24.2976 21.7971 23.0474 23.0474C21.7971 24.2976 20.1014 25 18.3333 25H7.66667C5.89856 25 4.20286 24.2976 2.95262 23.0474C1.70238 21.7971 1 20.1014 1 18.3333V7.66667C1 5.89856 1.70238 4.20286 2.95262 2.95262C4.20286 1.70238 5.89856 1 7.66667 1H18.3333C20.1014 1 21.7971 1.70238 23.0474 2.95262C24.2976 4.20286 25 5.89856 25 7.66667Z" stroke="var(--stroke-0, white)" stroke-width="2" stroke-linecap="round" stroke-linejoin="round"/>
<path id="Vector_2" d="M10.3333 13C9.54221 13 8.76885 13.2346 8.11105 13.6741C7.45326 14.1136 6.94057 14.7384 6.63782 15.4693C6.33507 16.2002 6.25585 17.0044 6.41019 17.7804C6.56454 18.5563 6.9455 19.269 7.50491 19.8284C8.06432 20.3878 8.77705 20.7688 9.55297 20.9231C10.3289 21.0775 11.1332 20.9983 11.8641 20.6955C12.595 20.3928 13.2197 19.8801 13.6592 19.2223C14.0987 18.5645 14.3333 17.7911 14.3333 17V5C14.7773 6.33333 16.4667 9 19.6667 9" stroke="var(--stroke-0, white)" stroke-width="2" stroke-linecap="round" stroke-linejoin="round"/>
</g>
</svg>
