<svg preserveAspectRatio="none" width="100%" height="100%" overflow="visible" style="display: block;" viewBox="0 0 42 42" fill="none" xmlns="http://www.w3.org/2000/svg">
<path id="Vector" d="M37.5 0H4.5C2.016 0 0 2.016 0 4.5V37.5C0 39.984 2.016 42 4.5 42H37.5C39.984 42 42 39.984 42 37.5V4.5C42 2.016 39.984 0 37.5 0ZM11.907 33.0465C11.6584 33.4765 11.2491 33.7902 10.7692 33.9185C10.2893 34.0468 9.77805 33.9791 9.348 33.7305C8.91795 33.4819 8.60429 33.0726 8.47601 32.5927C8.34774 32.1128 8.41536 31.6015 8.664 31.1715L10.005 28.8555C11.514 28.3955 12.7515 28.7515 13.7175 29.9235L11.907 33.0465ZM24.9285 27.9945H7.875C6.843 27.9945 6 27.15 6 26.1195C6 25.089 6.8445 24.2445 7.875 24.2445H12.657L18.7875 13.632L16.866 10.314C16.6179 9.88383 16.5506 9.3728 16.6788 8.89305C16.807 8.4133 17.1204 8.00402 17.55 7.755C17.9802 7.5069 18.4912 7.43958 18.9709 7.56781C19.4507 7.69604 19.86 8.00935 20.109 8.439L20.943 9.882L21.777 8.439C21.9001 8.22606 22.064 8.03946 22.2592 7.88984C22.4544 7.74023 22.6772 7.63053 22.9148 7.56701C23.1525 7.5035 23.4003 7.48741 23.6441 7.51966C23.888 7.55192 24.1231 7.63189 24.336 7.755C24.5489 7.87811 24.7355 8.04196 24.8852 8.23719C25.0348 8.43243 25.1445 8.65521 25.208 8.89284C25.2715 9.13046 25.2876 9.37827 25.2553 9.62212C25.2231 9.86596 25.1431 10.1011 25.02 10.314L16.977 24.246H22.7985C24.6915 24.246 25.752 26.4675 24.927 27.996L24.9285 27.9945ZM34.125 27.9945H31.4055L33.243 31.173C33.759 32.073 33.4485 33.2175 32.559 33.732C31.659 34.248 30.5145 33.9375 30 33.048C26.916 27.714 24.609 23.7015 23.0625 21.039C21.4965 18.3195 22.6125 15.6015 23.7285 14.6835C24.9555 16.8125 26.796 20 29.25 24.246H34.125C34.6223 24.246 35.0992 24.4435 35.4508 24.7952C35.8025 25.1468 36 25.6237 36 26.121C36 26.6183 35.8025 27.0952 35.4508 27.4468C35.0992 27.7985 34.6223 27.9945 34.125 27.9945Z" fill="var(--fill-0, white)"/>
</svg>
